<?xml version="1.0" encoding="UTF-8" standalone="no"?>
<!-- Created with Inkscape (http://www.inkscape.org/) -->

<svg
   xmlns:dc="http://purl.org/dc/elements/1.1/"
   xmlns:cc="http://creativecommons.org/ns#"
   xmlns:rdf="http://www.w3.org/1999/02/22-rdf-syntax-ns#"
   xmlns:svg="http://www.w3.org/2000/svg"
   xmlns="http://www.w3.org/2000/svg"
   xmlns:xlink="http://www.w3.org/1999/xlink"
   xmlns:sodipodi="http://sodipodi.sourceforge.net/DTD/sodipodi-0.dtd"
   xmlns:inkscape="http://www.inkscape.org/namespaces/inkscape"
   version="1.0"
   width="32"
   height="32"
   id="svg2408"
   inkscape:version="0.91 r13725"
   sodipodi:docname="independent-candidate.svg">
  <sodipodi:namedview
     pagecolor="#ffffff"
     bordercolor="#666666"
     borderopacity="1"
     objecttolerance="10"
     gridtolerance="10"
     guidetolerance="10"
     inkscape:pageopacity="0"
     inkscape:pageshadow="2"
     inkscape:window-width="1600"
     inkscape:window-height="824"
     id="namedview87"
     showgrid="false"
     inkscape:zoom="16.738393"
     inkscape:cx="31.273718"
     inkscape:cy="17.953541"
     inkscape:window-x="0"
     inkscape:window-y="24"
     inkscape:window-maximized="1"
     inkscape:current-layer="g4215" />
  <defs
     id="defs2410">
    <linearGradient
       id="linearGradient4384">
      <stop
         id="stop4386"
         style="stop-color:#ffffff;stop-opacity:1"
         offset="0" />
      <stop
         id="stop4388"
         style="stop-color:#ffffff;stop-opacity:0"
         offset="1" />
    </linearGradient>
    <linearGradient
       id="linearGradient4367">
      <stop
         id="stop4369"
         style="stop-color:#ffffff;stop-opacity:0.71755725"
         offset="0" />
      <stop
         id="stop4371"
         style="stop-color:#ffffff;stop-opacity:1"
         offset="1" />
    </linearGradient>
    <linearGradient
       x1="45.447727"
       y1="92.539597"
       x2="45.447727"
       y2="7.0165396"
       id="ButtonShadow"
       gradientUnits="userSpaceOnUse"
       gradientTransform="scale(1.0058652,0.994169)">
      <stop
         id="stop3750"
         style="stop-color:#000000;stop-opacity:1"
         offset="0" />
      <stop
         id="stop3752"
         style="stop-color:#000000;stop-opacity:0.58823532"
         offset="1" />
    </linearGradient>
    <linearGradient
       id="linearGradient3737">
      <stop
         id="stop3739"
         style="stop-color:#ffffff;stop-opacity:1"
         offset="0" />
      <stop
         id="stop3741"
         style="stop-color:#ffffff;stop-opacity:0"
         offset="1" />
    </linearGradient>
    <filter
       id="filter3174"
       style="color-interpolation-filters:sRGB">
      <feGaussianBlur
         id="feGaussianBlur3176"
         stdDeviation="1.71" />
    </filter>
    <filter
       x="-0.192"
       y="-0.192"
       width="1.3839999"
       height="1.3839999"
       id="filter3794"
       style="color-interpolation-filters:sRGB">
      <feGaussianBlur
         id="feGaussianBlur3796"
         stdDeviation="5.28" />
    </filter>
    <linearGradient
       x1="48"
       y1="20.220806"
       x2="48"
       y2="138.66119"
       id="linearGradient3613"
       xlink:href="#linearGradient3737"
       gradientUnits="userSpaceOnUse" />
    <linearGradient
       x1="45.447727"
       y1="92.539597"
       x2="45.447727"
       y2="7.0165396"
       id="ButtonShadow-0"
       gradientUnits="userSpaceOnUse"
       gradientTransform="matrix(1.0058652,0,0,0.994169,100,0)">
      <stop
         id="stop3750-8"
         style="stop-color:#000000;stop-opacity:1"
         offset="0" />
      <stop
         id="stop3752-5"
         style="stop-color:#000000;stop-opacity:0.58823532"
         offset="1" />
    </linearGradient>
    <linearGradient
       x1="32.251034"
       y1="6.1317081"
       x2="32.251034"
       y2="90.238609"
       id="linearGradient3780"
       xlink:href="#ButtonShadow-0"
       gradientUnits="userSpaceOnUse"
       gradientTransform="matrix(1.0238095,0,0,1.0119048,-1.1428571,-98.071429)" />
    <linearGradient
       x1="32.251034"
       y1="6.1317081"
       x2="32.251034"
       y2="90.238609"
       id="linearGradient3772"
       xlink:href="#ButtonShadow-0"
       gradientUnits="userSpaceOnUse"
       gradientTransform="matrix(1.0238095,0,0,1.0119048,-1.1428571,-98.071429)" />
    <linearGradient
       x1="32.251034"
       y1="6.1317081"
       x2="32.251034"
       y2="90.238609"
       id="linearGradient3725"
       xlink:href="#ButtonShadow-0"
       gradientUnits="userSpaceOnUse"
       gradientTransform="matrix(1.0238095,0,0,1.0119048,-1.1428571,-98.071429)" />
    <linearGradient
       x1="32.251034"
       y1="6.1317081"
       x2="32.251034"
       y2="90.238609"
       id="linearGradient3721"
       xlink:href="#ButtonShadow-0"
       gradientUnits="userSpaceOnUse"
       gradientTransform="translate(0,-97)" />
    <linearGradient
       x1="32.251034"
       y1="6.1317081"
       x2="32.251034"
       y2="90.238609"
       id="linearGradient3026"
       xlink:href="#ButtonShadow-0"
       gradientUnits="userSpaceOnUse"
       gradientTransform="matrix(1.0238095,0,0,1.0119048,-1.1428571,-98.071429)" />
    <clipPath
       id="clipPath4355">
      <rect
         width="84"
         height="80"
         rx="6"
         ry="6"
         x="6"
         y="6"
         id="rect4357"
         style="fill:#ffffff;fill-opacity:1;fill-rule:nonzero;stroke:none" />
    </clipPath>
    <radialGradient
       cx="48"
       cy="87.792389"
       r="42"
       fx="48"
       fy="87.792389"
       id="radialGradient4375"
       xlink:href="#linearGradient4367"
       gradientUnits="userSpaceOnUse"
       gradientTransform="matrix(1,-6.7114942e-8,8.4282233e-8,1.2557894,109.99999,-24.505592)" />
    <linearGradient
       x1="48"
       y1="88"
       x2="48"
       y2="-40"
       id="linearGradient4390"
       xlink:href="#linearGradient4384"
       gradientUnits="userSpaceOnUse"
       gradientTransform="matrix(1,0,0,-1,0,92)" />
    <linearGradient
       x1="48"
       y1="82"
       x2="112.12357"
       y2="82.454597"
       id="linearGradient4429"
       xlink:href="#linearGradient4384"
       gradientUnits="userSpaceOnUse"
       spreadMethod="reflect" />
    <linearGradient
       id="linearGradient3892">
      <stop
         id="stop3894"
         style="stop-color:#000000;stop-opacity:0.58823532"
         offset="0" />
      <stop
         id="stop3896"
         style="stop-color:#000000;stop-opacity:0.47058824"
         offset="0.11780351" />
      <stop
         id="stop3898"
         style="stop-color:#000000;stop-opacity:0.39215687"
         offset="0.23809524" />
      <stop
         id="stop3900"
         style="stop-color:#000000;stop-opacity:0.3137255"
         offset="1" />
    </linearGradient>
    <linearGradient
       x1="90"
       y1="88"
       x2="48"
       y2="88"
       id="linearGradient3228"
       xlink:href="#linearGradient3892"
       gradientUnits="userSpaceOnUse"
       spreadMethod="reflect" />
    <linearGradient
       id="linearGradient3700-8">
      <stop
         id="stop3702-5"
         style="stop-color:#bebebe;stop-opacity:1"
         offset="0" />
      <stop
         id="stop3704-9"
         style="stop-color:#dcdcdc;stop-opacity:1"
         offset="1" />
    </linearGradient>
    <linearGradient
       x1="11.998966"
       y1="0.92195445"
       x2="11.998966"
       y2="19.387045"
       id="StandardGradient-3"
       gradientUnits="userSpaceOnUse"
       gradientTransform="scale(0.9219544,1.0846523)">
      <stop
         id="stop3283-5"
         style="stop-color:#000000;stop-opacity:0.86274511"
         offset="0" />
      <stop
         id="stop2651-2"
         style="stop-color:#000000;stop-opacity:0.47058824"
         offset="1" />
    </linearGradient>
    <linearGradient
       x1="48"
       y1="90"
       x2="48"
       y2="5.9877172"
       id="linearGradient3072"
       xlink:href="#linearGradient3700-8"
       gradientUnits="userSpaceOnUse" />
    <linearGradient
       x1="56"
       y1="16"
       x2="56"
       y2="80"
       id="linearGradient3102"
       xlink:href="#StandardGradient-3"
       gradientUnits="userSpaceOnUse"
       gradientTransform="matrix(0.94249199,0,0,0.94249199,-77.239616,-1.124598)" />
    <linearGradient
       x1="56"
       y1="16"
       x2="56"
       y2="80"
       id="linearGradient3875"
       xlink:href="#StandardGradient-3"
       gradientUnits="userSpaceOnUse"
       gradientTransform="matrix(1.1350441,0,0,1.1566947,-6.4821172,-0.56200582)" />
    <filter
       x="-0.23571429"
       y="-0.24444444"
       width="1.4714286"
       height="1.4888889"
       id="filter3965"
       style="color-interpolation-filters:sRGB">
      <feGaussianBlur
         id="feGaussianBlur3967"
         stdDeviation="5.5" />
    </filter>
    <clipPath
       id="clipPath3969">
      <path
         d="m 112,6 c -3.324,0 -6,2.676 -6,6 l 0,68 c 0,3.324 2.676,6 6,6 l 72,0 c 3.324,0 6,-2.676 6,-6 l 0,-68 c 0,-3.324 -2.676,-6 -6,-6 l -72,0 z m 36,12 c 7.92199,0 14.34376,6.062377 14.34375,13.53125 -0.0316,0.938654 -0.1119,1.96423 -0.1875,3.0625 1.08238,0.820671 1.21824,3.284897 0.15625,5.8125 -0.38331,0.9123 -0.88699,1.640144 -1.40625,2.28125 -0.16795,0.79293 -0.28375,1.420323 -0.5,2.34375 -0.58841,1.783113 -2.89786,5.322548 -4.65625,8.0625 -0.11333,1.822252 -0.0664,3.618647 0.15625,5.46875 5.49854,4.829865 19.82105,7.460042 19.84375,11.59375 l 0.25,1.84375 -56,0 0.25,-1.84375 c -0.0213,-4.829854 14.2457,-6.928354 19.8125,-11.59375 0.38805,-2.285373 0.38037,-4.272095 0.1875,-6.28125 -1.93403,-2.604458 -4.12476,-5.639327 -4.65625,-7.25 -0.17157,-0.793238 -0.29564,-1.328018 -0.4375,-2.03125 -0.02,-0.022 -0.0427,-0.03992 -0.0625,-0.0625 -0.59432,-0.675399 -1.19378,-1.504913 -1.625,-2.53125 -1.1183,-2.66163 -0.94121,-5.324875 0.3125,-6 -0.0881,-1.064655 -0.1058,-2.019055 -0.125,-2.875 0,-7.468875 6.42176,-13.53125 14.34375,-13.53125 z"
         inkscape:connector-curvature="0"
         id="path3971"
         style="fill:#ff00ff;fill-opacity:1;fill-rule:nonzero;stroke:none" />
    </clipPath>
  </defs>
  <metadata
     id="metadata2413">
    <rdf:RDF>
      <cc:Work
         rdf:about="">
        <dc:format>image/svg+xml</dc:format>
        <dc:type
           rdf:resource="http://purl.org/dc/dcmitype/StillImage" />
        <dc:title></dc:title>
      </cc:Work>
    </rdf:RDF>
  </metadata>
  <g
     id="layer2"
     style="display:none"
     transform="translate(0,-64)">
    <rect
       width="86"
       height="85"
       rx="6"
       ry="6"
       x="5"
       y="7"
       id="rect3745"
       style="opacity:0.9;fill:url(#ButtonShadow);fill-opacity:1;fill-rule:nonzero;stroke:none;filter:url(#filter3174)" />
  </g>
  <g
     id="layer6"
     style="display:inline"
     transform="translate(75.451538,-68.364965)">
    <g
       id="g4215"
       transform="translate(4.548462,5.8649653)">
      <g
         id="g4191"
         transform="matrix(0.48323915,0,0,0.48323915,-48.536347,56.029379)">
        <path
           d="m -32.000013,14.000055 c -6.578084,0 -11.910673,4.933473 -11.910673,11.019222 0.01598,0.697437 0.0261,1.493764 0.09926,2.36126 -1.041033,0.550102 -1.176728,2.701364 -0.24814,4.870099 0.358069,0.836275 0.846451,1.515776 1.339951,2.066101 0.01645,0.0184 0.03308,0.0312 0.04963,0.04913 0.117798,0.573005 0.204935,1.026217 0.347397,1.672559 0.441331,1.3124 2.265031,3.781004 3.870968,5.903154 0.160151,1.637089 0.173325,3.253913 -0.148893,5.116069 -4.622431,3.801433 -16.444509,5.509609 -16.42679,9.445046 l -1.588084,10.232128 c 0,2.09638 3.159367,4.015841 8.188586,5.312838 l 0.694789,2.804 a 1.7295878,1.7144325 0 0 0 1.091813,1.131438 c 0.223226,0.08562 0.380762,0.266676 0.992554,0.442732 3.222748,0.927443 8.129937,1.574169 13.647645,1.574169 5.517709,0 10.474525,-0.646726 13.697272,-1.574169 0.611792,-0.176056 0.769331,-0.357156 0.992554,-0.442732 a 1.7295878,1.7144325 0 0 0 1.042187,-1.082247 l 0.843671,-2.951578 c 4.906344,-1.294943 8.039703,-3.147592 8.039703,-5.214451 l -1.588095,-10.23212 c -0.01886,-3.368207 -11.910674,-5.509608 -16.47643,-9.445053 -0.18486,-1.507492 -0.193385,-2.991749 -0.09928,-4.476547 1.460096,-2.232553 3.382384,-5.08976 3.870967,-6.542667 0.179567,-0.752422 0.257562,-1.272434 0.397022,-1.918525 0.431165,-0.522382 0.823158,-1.125974 1.141439,-1.86933 0.881833,-2.059528 0.799501,-4.053827 -0.09926,-4.722522 0.0628,-0.894886 0.122622,-1.744011 0.148877,-2.50884 9e-6,-6.085748 -5.332578,-11.019219 -11.910661,-11.019219 z"
           inkscape:connector-curvature="0"
           id="path3092"
           style="display:inline;fill:url(#linearGradient3102);fill-opacity:1;stroke:none;enable-background:new" />
        <path
           d="m -32,14 c -6.578084,0 -11.90625,4.945501 -11.90625,11.03125 0.01598,0.697437 0.02059,1.476254 0.09375,2.34375 -1.041033,0.550102 -1.178588,2.706265 -0.25,4.875 0.358069,0.836275 0.85025,1.512175 1.34375,2.0625 0.01645,0.0184 0.04595,0.04457 0.0625,0.0625 0.117798,0.573005 0.201288,1.009908 0.34375,1.65625 0.441331,1.3124 2.269063,3.7841 3.875,5.90625 0.160151,1.637089 0.165968,3.262844 -0.15625,5.125 -4.622431,3.801433 -16.455219,5.502063 -16.4375,9.4375 l -1.59375,10.25 c 0,2.09638 3.158281,4.015503 8.1875,5.3125 l 0.71875,2.78125 a 1.7295878,1.7144325 0 0 0 1.09375,1.125 c 0.223226,0.08562 0.356958,0.292694 0.96875,0.46875 3.222748,0.927443 8.138542,1.5625 13.65625,1.5625 5.517709,0 10.464753,-0.635057 13.6875,-1.5625 0.611792,-0.176056 0.776777,-0.383174 1,-0.46875 a 1.7295878,1.7144325 0 0 0 1.03125,-1.0625 l 0.84375,-2.96875 c 4.906344,-1.294943 8.0625,-3.120641 8.0625,-5.1875 l -1.59375,-10.25 c -0.01886,-3.368207 -11.902994,-5.502055 -16.46875,-9.4375 -0.18486,-1.507492 -0.219105,-2.983952 -0.125,-4.46875 1.460096,-2.232553 3.386417,-5.109593 3.875,-6.5625 0.179567,-0.752422 0.26679,-1.260159 0.40625,-1.90625 0.431165,-0.522382 0.837969,-1.131644 1.15625,-1.875 0.881833,-2.059528 0.773761,-4.050055 -0.125,-4.71875 0.0628,-0.894886 0.129995,-1.735171 0.15625,-2.5 9e-6,-6.085748 -5.328167,-11.03125 -11.90625,-11.03125 z m 0,1.9375 c 5.589056,0 9.931987,4.097552 9.96875,9.03125 1.56e-4,0.02098 0,0.04149 0,0.0625 -0.02545,0.688779 -0.063,1.491583 -0.125,2.375 a 1.9260586,1.9260586 0 0 0 0.625,1.5625 c -0.04866,-0.03591 0.081,0.101771 0.09375,0.46875 0.017,0.489306 -0.127404,1.265284 -0.46875,2.0625 -0.234439,0.54754 -0.533235,0.992182 -0.875,1.40625 a 1.9260586,1.9260586 0 0 0 -0.375,0.8125 c -0.13846,0.641458 -0.229377,1.123605 -0.375,1.75 -0.140365,0.390152 -0.691849,1.41967 -1.375,2.53125 -0.699714,1.13853 -1.546271,2.407434 -2.28125,3.53125 a 1.9260586,1.9260586 0 0 0 -0.3125,0.9375 c -0.101068,1.594663 -0.0436,3.21399 0.15625,4.84375 a 1.9260586,1.9260586 0 0 0 0.65625,1.21875 c 2.778403,2.394839 6.970946,3.82248 10.46875,5.25 1.748902,0.71376 3.325784,1.389438 4.3125,2 0.493358,0.305281 0.830394,0.621172 0.96875,0.78125 0.02661,0.03078 0.02025,0.01685 0.03125,0.03125 0.0028,0.0078 -0.0026,0.02524 0,0.03125 a 1.9260586,1.9260586 0 0 0 0.03125,0.15625 l 1.5625,9.96875 c 0,0.05314 -0.146787,0.540805 -1.28125,1.25 -1.134463,0.709195 -3.007984,1.446016 -5.34375,2.0625 a 1.9260586,1.9260586 0 0 0 -1.34375,1.34375 l -0.78125,2.78125 c -0.668375,0.271611 -0.489908,0.32241 -0.78125,0.40625 -2.94392,0.847202 -7.786312,1.46875 -13.15625,1.46875 -5.369937,0 -10.177899,-0.620633 -13.125,-1.46875 -0.28413,-0.08176 0.01006,-0.09166 -0.78125,-0.40625 l -0.65625,-2.59375 a 1.9260586,1.9260586 0 0 0 -1.40625,-1.40625 c -2.386591,-0.615483 -4.259795,-1.363017 -5.40625,-2.09375 -1.146455,-0.730733 -1.3125,-1.262692 -1.3125,-1.34375 l 1.5625,-9.96875 a 1.9260586,1.9260586 0 0 0 0.03125,-0.28125 c -8.2e-5,-0.01817 0.08294,-0.37888 1.03125,-1 0.948312,-0.62112 2.487742,-1.286755 4.21875,-1.96875 3.462017,-1.36399 7.643678,-2.645444 10.46875,-4.96875 a 1.9260586,1.9260586 0 0 0 0.6875,-1.15625 c 0.354991,-2.051555 0.32799,-3.900697 0.15625,-5.65625 a 1.9260586,1.9260586 0 0 0 -0.375,-0.96875 c -0.798009,-1.054521 -1.635807,-2.193362 -2.3125,-3.1875 -0.66528,-0.97737 -1.15615,-1.896071 -1.25,-2.15625 -0.0016,-0.0045 -0.02988,-0.02718 -0.03125,-0.03125 -0.106616,-0.495817 -0.177182,-0.900034 -0.28125,-1.40625 a 1.9260586,1.9260586 0 0 0 -0.46875,-0.9375 c -0.156701,-0.169767 -0.172559,-0.18931 -0.03125,-0.03125 -0.395143,-0.440643 -0.745486,-0.936828 -1,-1.53125 -0.359852,-0.840442 -0.496566,-1.682848 -0.46875,-2.1875 0.01391,-0.252326 0.05994,-0.355372 0.0625,-0.375 a 1.9260586,1.9260586 0 0 0 0.78125,-1.71875 c -0.06469,-0.767115 -0.04649,-1.475745 -0.0625,-2.1875 0,-0.0105 -3.9e-5,-0.02075 0,-0.03125 0.01844,-4.947692 4.367811,-9.0625 9.96875,-9.0625 z"
           inkscape:connector-curvature="0"
           id="path3094"
           style="display:inline;opacity:0.1;fill:#000000;fill-opacity:1;stroke:none;enable-background:new" />
        <path
           d="m -32,14 c -6.578084,0 -11.90625,4.945501 -11.90625,11.03125 0.01598,0.697437 0.02059,1.476254 0.09375,2.34375 -1.041033,0.550102 -1.178588,2.706265 -0.25,4.875 0.358069,0.836275 0.85025,1.512175 1.34375,2.0625 0.01645,0.0184 0.04595,0.04457 0.0625,0.0625 0.117798,0.573005 0.201288,1.009908 0.34375,1.65625 0.441331,1.3124 2.269063,3.7841 3.875,5.90625 0.160151,1.637089 0.165968,3.262844 -0.15625,5.125 -4.622431,3.801433 -16.455219,5.502063 -16.4375,9.4375 l -1.59375,10.25 c 0,2.09638 3.158281,4.015503 8.1875,5.3125 l 0.71875,2.78125 a 1.7295878,1.7144325 0 0 0 1.09375,1.125 c 0.223226,0.08562 0.356958,0.292694 0.96875,0.46875 3.222748,0.927443 8.138542,1.5625 13.65625,1.5625 5.517709,0 10.464753,-0.635057 13.6875,-1.5625 0.611792,-0.176056 0.776777,-0.383174 1,-0.46875 a 1.7295878,1.7144325 0 0 0 1.03125,-1.0625 l 0.84375,-2.96875 c 4.906344,-1.294943 8.0625,-3.120641 8.0625,-5.1875 l -1.59375,-10.25 c -0.01886,-3.368207 -11.902994,-5.502055 -16.46875,-9.4375 -0.18486,-1.507492 -0.219105,-2.983952 -0.125,-4.46875 1.460096,-2.232553 3.386417,-5.109593 3.875,-6.5625 0.179567,-0.752422 0.26679,-1.260159 0.40625,-1.90625 0.431165,-0.522382 0.837969,-1.131644 1.15625,-1.875 0.881833,-2.059528 0.773761,-4.050055 -0.125,-4.71875 0.0628,-0.894886 0.129995,-1.735171 0.15625,-2.5 9e-6,-6.085748 -5.328167,-11.03125 -11.90625,-11.03125 z m 0,1.0625 c 6.039419,0 10.825314,4.479735 10.84375,9.9375 3.6e-5,0.01053 0,0.02072 0,0.03125 -0.02575,0.723069 -0.0938,1.54758 -0.15625,2.4375 a 1.0515944,1.0515944 0 0 0 0.4375,0.90625 c 0.0647,0.04813 0.289992,0.383332 0.3125,1.03125 0.02251,0.647918 -0.144697,1.534703 -0.53125,2.4375 -0.272505,0.636444 -0.617646,1.161756 -1,1.625 a 1.0515944,1.0515944 0 0 0 -0.21875,0.4375 c -0.136962,0.634517 -0.219439,1.116441 -0.375,1.78125 -0.0084,0.03588 -0.02241,0.05671 -0.03125,0.09375 -0.196607,0.546091 -0.748278,1.566042 -1.4375,2.6875 -0.711269,1.157332 -1.54851,2.442107 -2.28125,3.5625 a 1.0515944,1.0515944 0 0 0 -0.1875,0.5 c -0.09791,1.544782 -0.0368,3.082002 0.15625,4.65625 a 1.0515944,1.0515944 0 0 0 0.34375,0.65625 c 2.553426,2.200921 6.699922,3.6889 10.21875,5.125 1.759414,0.71805 3.359339,1.426603 4.4375,2.09375 0.539081,0.333574 0.959556,0.642518 1.1875,0.90625 0.227944,0.263732 0.249372,0.419065 0.25,0.53125 a 1.0515944,1.0515944 0 0 0 0.03125,0.15625 l 1.5625,10.09375 c 0,0.498211 -0.43142,1.214778 -1.6875,2 -1.25608,0.785222 -3.20468,1.525697 -5.59375,2.15625 a 1.0515944,1.0515944 0 0 0 -0.71875,0.75 l -0.8125,2.90625 -0.03125,0.03125 c -0.0095,0.02386 -0.0015,0.03464 0,0.03125 0.0015,-0.0034 -0.0204,-0.02329 -0.03125,0 -0.0217,0.04658 0.02427,0.01721 0,0.0625 -0.02427,0.04529 -0.0045,-0.01261 -0.03125,0.03125 -0.02676,0.04386 -0.0021,-0.01105 -0.03125,0.03125 -0.03147,0.04061 0.0024,-0.0075 -0.03125,0.03125 -0.03367,0.03879 0.0045,-0.0056 -0.03125,0.03125 -0.03578,0.03686 0.0065,-0.0036 -0.03125,0.03125 -0.03776,0.03481 0.0084,-0.0014 -0.03125,0.03125 -0.01982,0.01633 -0.01013,0.03132 0,0.03125 -0.04138,0.03042 0.01175,-0.02808 -0.03125,0 -0.043,0.02808 0.01323,0.0056 -0.03125,0.03125 -0.04448,0.02565 -0.01667,0.0081 -0.0625,0.03125 -0.04583,0.02315 0.01579,-0.02059 -0.03125,0 -0.04704,0.02059 0.01685,-0.01796 -0.03125,0 a 1.0515944,1.0515944 0 0 0 0,0.03125 c -0.591024,0.226578 -0.456797,0.30816 -0.90625,0.4375 -3.070512,0.883633 -7.969221,1.5 -13.40625,1.5 -5.437028,0 -10.302751,-0.615868 -13.375,-1.5 -0.440352,-0.126721 -0.253603,-0.199159 -0.875,-0.4375 a 1.0515944,1.0515944 0 0 0 -0.03125,-0.03125 c -0.05173,-0.01761 0.01936,0.02062 -0.03125,0 -0.05061,-0.02062 -0.01318,-0.0077 -0.0625,-0.03125 -0.04932,-0.02356 0.0166,0.02642 -0.03125,0 -0.04785,-0.02642 0.01496,-0.0021 -0.03125,-0.03125 -0.04621,-0.02919 0.01317,6.13e-4 -0.03125,-0.03125 -0.04442,-0.03186 0.01121,0.0032 -0.03125,-0.03125 -0.02123,-0.01721 -0.03379,-0.0089 -0.03125,0 -0.04036,-0.03688 0.0069,0.008 -0.03125,-0.03125 -0.03811,-0.0392 0.0045,0.01014 -0.03125,-0.03125 0.0086,0.0028 0.01661,-0.0095 0,-0.03125 -0.03322,-0.04344 -6.63e-4,0.01408 -0.03125,-0.03125 -0.03059,-0.04533 -0.0034,0.01582 -0.03125,-0.03125 -0.02785,-0.04707 0.025,0.01739 0,-0.03125 -0.025,-0.04864 -0.0092,0.0188 -0.03125,-0.03125 -0.01103,-0.02502 -0.0015,-0.0349 0,-0.03125 l 0,-0.03125 c -0.01905,-0.05127 -0.01528,0.02107 -0.03125,-0.03125 l -0.6875,-2.71875 a 1.0515944,1.0515944 0 0 0 -0.78125,-0.78125 c -2.444714,-0.630473 -4.386408,-1.409372 -5.65625,-2.21875 -1.269842,-0.809378 -1.71875,-1.542347 -1.71875,-2.0625 l 1.5625,-10.09375 a 1.0515944,1.0515944 0 0 0 0.03125,-0.15625 c -0.0021,-0.456611 0.384425,-1.029013 1.4375,-1.71875 1.053075,-0.689737 2.627699,-1.374086 4.375,-2.0625 3.494601,-1.376828 7.626978,-2.712307 10.21875,-4.84375 a 1.0515944,1.0515944 0 0 0 0.375,-0.625 c 0.340111,-1.965565 0.322728,-3.704481 0.15625,-5.40625 a 1.0515944,1.0515944 0 0 0 -0.1875,-0.53125 c -0.800261,-1.057497 -1.650645,-2.200501 -2.34375,-3.21875 -0.693105,-1.018249 -1.230547,-1.976685 -1.375,-2.40625 -0.121357,-0.55822 -0.202286,-0.995134 -0.3125,-1.53125 a 1.0515944,1.0515944 0 0 0 -0.25,-0.5 c -0.02327,-0.02521 -0.04683,-0.0175 -0.0625,-0.03125 -0.439799,-0.49044 -0.85472,-1.077023 -1.15625,-1.78125 -0.407271,-0.951189 -0.568432,-1.919185 -0.53125,-2.59375 0.03718,-0.674565 0.27681,-0.918641 0.3125,-0.9375 a 1.0515944,1.0515944 0 0 0 0.5625,-1.03125 c -0.0681,-0.807473 -0.07798,-1.547924 -0.09375,-2.25 0,-0.01053 -3.6e-5,-0.02072 0,-0.03125 0.01844,-5.457768 4.80433,-9.9375 10.84375,-9.9375 z"
           inkscape:connector-curvature="0"
           id="path3096"
           style="display:inline;opacity:0.15;fill:#000000;fill-opacity:1;stroke:none;enable-background:new" />
        <path
           d="m -32,14 c -6.578084,0 -11.90625,4.945501 -11.90625,11.03125 0.0048,0.209345 0.02565,0.429835 0.03125,0.65625 0.198701,-5.92469 5.422785,-10.6875 11.875,-10.6875 6.383903,0 11.57293,4.663117 11.875,10.5 0.0071,-0.149119 0.02633,-0.325307 0.03125,-0.46875 9e-6,-6.085748 -5.328167,-11.03125 -11.90625,-11.03125 z m -11.875,13.40625 c -0.609597,0.370124 -0.873775,1.329002 -0.78125,2.5 0.09528,-0.722115 0.387821,-1.290328 0.84375,-1.53125 -0.02837,-0.336398 -0.04907,-0.655372 -0.0625,-0.96875 z m 23.6875,0.1875 c -0.0211,0.320759 -0.03894,0.601831 -0.0625,0.9375 0.407828,0.303432 0.629688,0.893433 0.6875,1.625 0.13658,-1.15474 -0.0914,-2.105822 -0.625,-2.5625 z m -18.1875,17.15625 c -0.02908,0.735547 -0.0793,1.506579 -0.21875,2.3125 -4.622431,3.801433 -16.455219,5.502063 -16.4375,9.4375 l -1.59375,10.25 c 0,0.173606 0.0199,0.329073 0.0625,0.5 l 1.53125,-9.75 c -0.01772,-3.935437 11.815069,-5.636067 16.4375,-9.4375 0.203424,-1.175624 0.23527,-2.265609 0.21875,-3.3125 z m 12.78125,0.40625 c -0.0082,0.963601 0.03649,1.929609 0.15625,2.90625 4.565756,3.935445 16.44989,6.069293 16.46875,9.4375 l 1.53125,9.75 c 0.0422,-0.168029 0.0625,-0.328838 0.0625,-0.5 l -1.59375,-10.25 c -0.01886,-3.368207 -11.902994,-5.502055 -16.46875,-9.4375 -0.07832,-0.638679 -0.135628,-1.274104 -0.15625,-1.90625 z"
           inkscape:connector-curvature="0"
           id="path3098"
           style="display:inline;opacity:0.5;fill:#000000;fill-opacity:1;stroke:none;enable-background:new" />
        <path
           d="m -20.125,25.5 c -0.03069,0.645974 -0.07398,1.304199 -0.125,2.03125 0.02247,0.01672 0.04105,0.04415 0.0625,0.0625 0.03516,-0.534376 0.07734,-1.084556 0.09375,-1.5625 0,-0.179647 -0.02206,-0.353709 -0.03125,-0.53125 z m -23.75,0.1875 c -0.0039,0.115578 -0.03125,0.227302 -0.03125,0.34375 0.0098,0.426984 0.01005,0.880246 0.03125,1.375 0.0193,-0.01172 0.04253,-0.0207 0.0625,-0.03125 -0.0512,-0.607106 -0.04943,-1.159609 -0.0625,-1.6875 z m -0.78125,4.28125 c -0.106491,0.91862 0.0832,2.088843 0.59375,3.28125 0.358069,0.836275 0.85025,1.512175 1.34375,2.0625 0.01645,0.0184 0.04595,0.04457 0.0625,0.0625 0.117798,0.573005 0.201288,1.009908 0.34375,1.65625 0.441331,1.3124 2.269063,3.7841 3.875,5.90625 0.05904,0.603555 0.05285,1.201144 0.0625,1.8125 0.03812,-0.964003 0.02834,-1.883926 -0.0625,-2.8125 -1.605937,-2.12215 -3.433669,-4.59385 -3.875,-5.90625 -0.142462,-0.646342 -0.225952,-1.083245 -0.34375,-1.65625 -0.01655,-0.01793 -0.04605,-0.0441 -0.0625,-0.0625 -0.4935,-0.550325 -0.985681,-1.226225 -1.34375,-2.0625 -0.338697,-0.791032 -0.530521,-1.571715 -0.59375,-2.28125 z m 25.09375,0.1875 c -0.07751,0.65529 -0.251229,1.366774 -0.5625,2.09375 -0.318281,0.743356 -0.725085,1.352618 -1.15625,1.875 -0.13946,0.646091 -0.226683,1.153828 -0.40625,1.90625 -0.488583,1.452907 -2.414904,4.329947 -3.875,6.5625 -0.0212,0.334536 0.0099,0.665247 0,1 1.460096,-2.232553 3.386417,-5.109593 3.875,-6.5625 0.179567,-0.752422 0.26679,-1.260159 0.40625,-1.90625 0.431165,-0.522382 0.837969,-1.131644 1.15625,-1.875 0.481686,-1.124982 0.632092,-2.213108 0.5625,-3.09375 z m -37,37.09375 -0.0625,0.5 c 0,2.09638 3.158281,4.015503 8.1875,5.3125 l 0.71875,2.78125 a 1.7295878,1.7144325 0 0 0 1.09375,1.125 c 0.223226,0.08562 0.356958,0.292694 0.96875,0.46875 3.222748,0.927443 8.138542,1.5625 13.65625,1.5625 5.517709,0 10.464753,-0.635057 13.6875,-1.5625 0.611792,-0.176056 0.776777,-0.383174 1,-0.46875 a 1.7295878,1.7144325 0 0 0 1.03125,-1.0625 l 0.84375,-2.96875 c 4.906344,-1.294943 8.0625,-3.120641 8.0625,-5.1875 l -0.0625,-0.5 c -0.467429,1.860996 -3.499963,3.499794 -8,4.6875 l -0.84375,2.96875 a 1.7295878,1.7144325 0 0 1 -1.03125,1.0625 c -0.223223,0.08558 -0.388208,0.292694 -1,0.46875 -3.222747,0.927443 -8.169791,1.5625 -13.6875,1.5625 -5.517708,0 -10.433502,-0.635057 -13.65625,-1.5625 -0.611792,-0.176056 -0.745524,-0.38313 -0.96875,-0.46875 a 1.7295878,1.7144325 0 0 1 -1.09375,-1.125 l -0.71875,-2.78125 c -4.612737,-1.189589 -7.653174,-2.919405 -8.125,-4.8125 z"
           inkscape:connector-curvature="0"
           id="path3100"
           style="display:inline;opacity:0.5;fill:#ffffff;fill-opacity:1;stroke:none;enable-background:new" />
      </g>
    </g>
    <path
       d="m 62.3125,32.0625 c -0.03891,0.801765 -0.09374,1.623468 -0.15625,2.53125 0.02239,0.01698 0.04092,0.04415 0.0625,0.0625 0.05117,-0.731815 0.103063,-1.473784 0.125,-2.125 0,-0.159122 -0.02547,-0.310944 -0.03125,-0.46875 z m -28.625,0.21875 c -0.0017,0.08483 -0.03125,0.164799 -0.03125,0.25 0.01303,0.579511 0.03216,1.232395 0.0625,1.90625 0.01956,-0.01184 0.04238,-0.02042 0.0625,-0.03125 -0.06406,-0.77417 -0.07998,-1.462479 -0.09375,-2.125 z m -0.9375,5.21875 c -0.09401,1.107054 0.130321,2.505747 0.71875,3.90625 0.431222,1.026337 1.030678,1.855851 1.625,2.53125 0.01981,0.02258 0.04255,0.0405 0.0625,0.0625 0.141865,0.703232 0.265934,1.238012 0.4375,2.03125 0.531496,1.610673 2.722218,4.645542 4.65625,7.25 0.0733,0.763575 0.116874,1.536254 0.125,2.3125 0.03713,-1.124384 -0.02088,-2.227845 -0.125,-3.3125 -1.934032,-2.604458 -4.124754,-5.639327 -4.65625,-7.25 -0.171566,-0.793238 -0.295635,-1.328018 -0.4375,-2.03125 -0.01995,-0.022 -0.04269,-0.03992 -0.0625,-0.0625 -0.594322,-0.675399 -1.193778,-1.504913 -1.625,-2.53125 -0.419362,-0.998111 -0.65017,-2.015608 -0.71875,-2.90625 z m 30.25,0.15625 c -0.07561,0.842951 -0.289253,1.802149 -0.6875,2.75 -0.383307,0.9123 -0.886997,1.640144 -1.40625,2.28125 -0.167952,0.79293 -0.283749,1.420323 -0.5,2.34375 -0.588402,1.783113 -2.897855,5.322548 -4.65625,8.0625 -0.04942,0.794587 -0.07408,1.580299 -0.0625,2.375 0.0086,-0.455039 0.03417,-0.919437 0.0625,-1.375 1.758395,-2.739952 4.067848,-6.279387 4.65625,-8.0625 0.216251,-0.923427 0.332048,-1.55082 0.5,-2.34375 0.519253,-0.641106 1.022943,-1.36895 1.40625,-2.28125 0.569905,-1.356408 0.767145,-2.679984 0.6875,-3.75 z m -42.875,34.34375 -0.125,1 56,0 -0.125,-1 -55.75,0 z"
       inkscape:connector-curvature="0"
       id="path3877"
       style="display:inline;opacity:0.3;fill:#ffffff;fill-opacity:1;stroke:none;enable-background:new" />
  </g>
</svg>
